<svg width="32" height="32" viewBox="0 0 32 32" fill="none" xmlns="http://www.w3.org/2000/svg">
<path d="M16.0013 16.332C15.0124 16.332 14.0457 16.0388 13.2235 15.4894C12.4012 14.94 11.7603 14.1591 11.3819 13.2455C11.0035 12.3318 10.9044 11.3265 11.0974 10.3566C11.2903 9.38668 11.7665 8.49576 12.4658 7.7965C13.165 7.09724 14.0559 6.62103 15.0259 6.42811C15.9958 6.23518 17.0011 6.3342 17.9147 6.71264C18.8283 7.09107 19.6092 7.73194 20.1586 8.55418C20.7081 9.37643 21.0013 10.3431 21.0013 11.332C21.0013 12.6581 20.4745 13.9299 19.5368 14.8676C18.5992 15.8052 17.3274 16.332 16.0013 16.332ZM16.0013 8.33203C15.408 8.33203 14.8279 8.50798 14.3346 8.83762C13.8412 9.16727 13.4567 9.6358 13.2297 10.184C13.0026 10.7322 12.9432 11.3354 13.0589 11.9173C13.1747 12.4992 13.4604 13.0338 13.88 13.4534C14.2995 13.8729 14.8341 14.1586 15.416 14.2744C15.998 14.3901 16.6012 14.3307 17.1494 14.1037C17.6975 13.8766 18.1661 13.4921 18.4957 12.9987C18.8254 12.5054 19.0013 11.9254 19.0013 11.332C19.0013 10.5364 18.6852 9.77332 18.1226 9.21071C17.56 8.6481 16.797 8.33203 16.0013 8.33203ZM25.3346 25.6654C25.0705 25.6619 24.8181 25.5554 24.6313 25.3687C24.4446 25.1819 24.3381 24.9295 24.3346 24.6654C24.3346 22.0654 22.9213 20.332 16.0013 20.332C9.0813 20.332 7.66797 22.0654 7.66797 24.6654C7.66797 24.9306 7.56261 25.1849 7.37508 25.3725C7.18754 25.56 6.93319 25.6654 6.66797 25.6654C6.40275 25.6654 6.1484 25.56 5.96086 25.3725C5.77333 25.1849 5.66797 24.9306 5.66797 24.6654C5.66797 18.332 12.908 18.332 16.0013 18.332C19.0946 18.332 26.3346 18.332 26.3346 24.6654C26.3312 24.9295 26.2247 25.1819 26.0379 25.3687C25.8511 25.5554 25.5988 25.6619 25.3346 25.6654Z" fill="black"/>
</svg>
