<svg width="28" height="28" viewBox="0 0 28 28" fill="none" xmlns="http://www.w3.org/2000/svg">
<circle cx="14" cy="14" r="13.5" stroke="#9E9E9E"/>
<path d="M5.53906 11.3438V17H4.52344V11.3438H5.53906ZM10.4062 13.25C10.2852 12.5703 9.74219 12.1797 9.05469 12.1797C8.12891 12.1797 7.47266 12.8906 7.47656 14.1719C7.47266 15.4727 8.13281 16.1641 9.05469 16.1641C9.72656 16.1641 10.2695 15.7891 10.4062 15.125H11.4297C11.2734 16.2109 10.3789 17.0781 9.03906 17.0781C7.54688 17.0781 6.44922 15.9961 6.45312 14.1719C6.44922 12.3438 7.55859 11.2656 9.03906 11.2656C10.2891 11.2656 11.2539 11.9922 11.4297 13.25H10.4062ZM17.3516 14.1719C17.3555 16 16.2383 17.0781 14.7578 17.0781C13.2695 17.0781 12.1602 15.9961 12.1641 14.1719C12.1602 12.3438 13.2695 11.2656 14.7578 11.2656C16.2383 11.2656 17.3555 12.3438 17.3516 14.1719ZM13.1875 14.1719C13.1836 15.4648 13.8359 16.1641 14.7578 16.1641C15.6836 16.1641 16.332 15.4648 16.3281 14.1719C16.332 12.8789 15.6836 12.1797 14.7578 12.1797C13.8359 12.1797 13.1836 12.8789 13.1875 14.1719ZM22.9062 11.3438V17H22L19.3203 13.1328H19.2734V17H18.2578V11.3438H19.1797L21.8438 15.2109H21.8984V11.3438H22.9062Z" fill="#9E9E9E"/>
</svg>
