<svg width="21" height="21" viewBox="0 0 21 21" fill="none" xmlns="http://www.w3.org/2000/svg">
<path d="M10.2889 6.08229C12.0492 6.08229 13.4762 5.43252 13.4762 4.63099C13.4762 3.82946 12.0492 3.17969 10.2889 3.17969C8.52857 3.17969 7.10156 3.82946 7.10156 4.63099C7.10156 5.43252 8.52857 6.08229 10.2889 6.08229Z" stroke="black" stroke-width="0.8" stroke-miterlimit="10"/>
<path d="M17.0663 6.43729C17.6869 5.59614 17.9068 4.53694 17.3219 3.46933C16.6691 2.2762 15.3595 1.83751 14.123 1.50752C13.025 1.21441 11.8888 1.07724 10.7539 1.04553C10.5992 1.041 10.4452 1.03906 10.2906 1.03906C5.89526 1.03971 2.33203 2.74918 2.33203 4.85722C2.33203 6.96527 5.89526 8.67474 10.2906 8.67474C10.8619 8.67474 11.4332 8.64627 12.0013 8.58609C12.5332 8.53045 13.0618 8.44763 13.584 8.3331C14.0628 8.22828 14.5371 8.09758 14.9991 7.93453C15.8072 7.64919 16.5662 7.11409 17.0657 6.43729H17.0663Z" stroke="black" stroke-width="0.8" stroke-miterlimit="10"/>
<path d="M2.33203 4.85938V10.0085C2.33203 10.4595 2.45367 10.9046 2.69631 11.2857C2.70537 11.3006 2.71508 11.3149 2.72543 11.3291C2.72672 11.3317 2.72866 11.3336 2.72996 11.3362C2.73902 11.3491 2.74808 11.3621 2.75778 11.375C2.75972 11.3776 2.76166 11.3802 2.7636 11.3828L2.76943 11.3906C3.07224 11.7963 3.51223 12.1094 3.96321 12.3307C5.77362 13.2184 7.77231 13.7367 9.78201 13.8176C9.80983 13.8189 9.83765 13.8195 9.86547 13.8208" stroke="black" stroke-width="0.8" stroke-miterlimit="10"/>
<path d="M11.6555 1.10156C12.9257 1.11256 14.6384 1.32867 15.7914 1.7473C17.5869 2.40016 19.0421 3.84694 19.5462 5.70911C19.8723 6.9126 19.937 8.32702 19.64 9.54992C18.2359 15.3286 12.2405 19.1914 10.2968 20.3108C9.93637 20.5185 9.48409 20.4784 9.16446 20.2118L5.41165 17.0827C5.23048 16.9313 5.16836 16.6227 5.33724 16.4389C5.41294 16.3567 5.5197 16.3121 5.62323 16.27C6.25279 16.0132 6.8746 15.7641 7.47505 15.4431C9.71703 14.2442 11.651 12.613 13.4938 10.8802C14.9373 9.52339 16.0657 7.98603 17.1521 6.34191L17.2259 6.2028" stroke="black" stroke-width="0.8" stroke-miterlimit="10"/>
<path d="M14.3083 17.5819L9.26478 14.7305L5.75391 16.3974L5.83421 17.0506L9.74598 20.4334L14.3083 17.5819Z" fill="black"/>
</svg>
